# xmcd
#
# Track frame offsets:
#	150
#	19906
#	38520
#	74481
#	154958
#	176625
#	209941
#
# Disc length: 3269 seconds
#
# Revision: 1
# Processed by: cddbd v1.5.2PL0 Copyright (c) Steve Scherf et al.
# Submitted via: audiograbber 1.83.01
#
DISCID=650cc307
DTITLE=Joe Bonamassa  - Live from Nowhere in Particular # 2
DYEAR=2007
DGENRE=Blues
TTITLE0=Ball peen Hammer 
TTITLE1=If Heartaches were Nickels 
TTITLE2=Woke up Dreaming 
TTITLE3=Django - Just go paid 
TTITLE4=High Water everywhere 
TTITLE5=Asking around for you 
TTITLE6=A new day yesterday - Starship trooper - Wurm 	
EXTD=
EXTT0=
EXTT1=
EXTT2=
EXTT3=
EXTT4=
EXTT5=
EXTT6=
PLAYORDER=
